<svg width="662" height="150" viewBox="0 0 662 150" fill="none" xmlns="http://www.w3.org/2000/svg">
<path fill-rule="evenodd" clip-rule="evenodd" d="M206.773 111.592C206.146 111.522 205.521 111.473 204.888 111.454C171.645 109.52 138.575 105.985 105.851 100.865C100.813 100.001 95.8561 98.8386 91.0201 97.3946C88.9292 96.7175 86.972 95.7919 85.2113 94.6511C84.1609 93.9367 83.359 93.0094 82.8831 91.9619L82.7822 91.6575C82.4876 90.6381 82.6002 89.5673 83.0977 88.5991C83.6984 87.5365 84.4805 86.5486 85.4247 85.6737C86.1281 85.0054 86.9177 84.4058 87.7821 83.8833C91.0236 81.828 94.4791 80.0177 98.1108 78.4687C115.535 71.0543 133.235 64.0902 151.182 57.5827L226.54 30.6719L202.29 34.4946L146.07 55.1017L92.0039 76.7302C86.6296 78.9983 81.4944 81.6268 76.6462 84.5919C74.7204 85.7694 73.1428 87.2933 72.0341 89.043C71.2503 90.1913 71.0153 91.5415 71.3763 92.8245L71.4754 93.1278C71.9478 94.2073 72.7538 95.1644 73.8141 95.9126C75.5684 97.0896 77.5292 98.0501 79.6282 98.7564C84.5872 100.287 89.6775 101.521 94.8594 102.439C127.442 107.725 160.391 111.403 193.528 113.442C194.157 113.463 194.785 113.515 195.412 113.583C199.262 113.212 203.066 112.546 206.773 111.592Z" fill="#231F20"/>
<path fill-rule="evenodd" clip-rule="evenodd" d="M229.953 112.008H245.457V115.932H240.257V127.928H235.154V115.932H229.953V112.008Z" fill="#231F20"/>
<path fill-rule="evenodd" clip-rule="evenodd" d="M273.661 118.459H275.808C276.041 118.459 276.491 118.386 277.158 118.244C277.496 118.176 277.771 118.01 277.986 117.74C278.198 117.478 278.304 117.166 278.304 116.816C278.304 116.307 278.136 115.906 277.799 115.633C277.461 115.357 276.828 115.222 275.898 115.222H273.661V118.459ZM268.535 127.929V112.008H277.036C278.611 112.008 279.818 112.14 280.65 112.398C281.483 112.66 282.154 113.143 282.666 113.848C283.176 114.556 283.43 115.414 283.43 116.43C283.43 117.312 283.235 118.078 282.844 118.721C282.452 119.361 281.915 119.884 281.231 120.277C280.793 120.536 280.195 120.744 279.434 120.909C280.04 121.105 280.478 121.3 280.758 121.496C280.944 121.63 281.213 121.909 281.567 122.343C281.922 122.772 282.16 123.103 282.279 123.338L284.776 127.929H279.019L276.287 123.067C275.942 122.44 275.634 122.035 275.364 121.846C274.994 121.598 274.577 121.477 274.113 121.477H273.661V127.929H268.535Z" fill="#231F20"/>
<path fill-rule="evenodd" clip-rule="evenodd" d="M316.14 121.868L314.347 116.141L312.542 121.868H316.14ZM317.217 125.303H311.456L310.628 127.93H305.428L311.62 112.008H317.193L323.37 127.93H318.039L317.217 125.303Z" fill="#231F20"/>
<path fill-rule="evenodd" clip-rule="evenodd" d="M345.725 112.008H358.311V115.439H350.853V118.214H357.22V121.427H350.853V127.928H345.725V112.008Z" fill="#231F20"/>
<path fill-rule="evenodd" clip-rule="evenodd" d="M381.973 112.008H387.077V127.929H381.973V112.008Z" fill="#231F20"/>
<path fill-rule="evenodd" clip-rule="evenodd" d="M411.469 112.008H416.571V118.023L421.903 112.008H428.673L422.673 117.99L428.954 127.928H422.687L419.216 121.402L416.571 124.078V127.928H411.469V112.008Z" fill="#231F20"/>
<path fill-rule="evenodd" clip-rule="evenodd" d="M450.473 122.646L455.318 122.352C455.419 123.113 455.633 123.69 455.953 124.086C456.474 124.732 457.222 125.051 458.189 125.051C458.911 125.051 459.464 124.887 459.858 124.559C460.247 124.232 460.444 123.849 460.444 123.416C460.444 123.003 460.257 122.633 459.889 122.309C459.517 121.986 458.649 121.678 457.29 121.388C455.058 120.905 453.466 120.262 452.517 119.46C451.558 118.658 451.08 117.628 451.08 116.387C451.08 115.571 451.325 114.797 451.818 114.072C452.307 113.344 453.042 112.771 454.026 112.357C455.012 111.942 456.362 111.734 458.075 111.734C460.177 111.734 461.785 112.109 462.888 112.872C463.992 113.627 464.648 114.835 464.857 116.487L460.06 116.76C459.936 116.041 459.672 115.517 459.263 115.192C458.856 114.864 458.292 114.702 457.579 114.702C456.987 114.702 456.546 114.821 456.249 115.064C455.947 115.306 455.797 115.601 455.797 115.948C455.797 116.2 455.92 116.426 456.161 116.634C456.395 116.84 456.963 117.037 457.862 117.214C460.081 117.677 461.675 118.146 462.635 118.622C463.596 119.093 464.298 119.683 464.736 120.382C465.173 121.086 465.39 121.874 465.39 122.741C465.39 123.761 465.1 124.703 464.515 125.564C463.933 126.43 463.118 127.08 462.07 127.525C461.025 127.972 459.701 128.194 458.112 128.194C455.314 128.194 453.376 127.675 452.3 126.628C451.222 125.585 450.61 124.258 450.473 122.646Z" fill="#231F20"/>
<path fill-rule="evenodd" clip-rule="evenodd" d="M488.699 112.008H493.797V118.023L499.132 112.008H505.902L499.906 117.99L506.183 127.928H499.913L496.445 121.402L493.797 124.078V127.928H488.699V112.008Z" fill="#231F20"/>
<path fill-rule="evenodd" clip-rule="evenodd" d="M532.239 119.999C532.239 121.606 532.548 122.759 533.166 123.459C533.786 124.163 534.622 124.511 535.685 124.511C536.776 124.511 537.624 124.168 538.219 123.481C538.82 122.796 539.117 121.562 539.117 119.782C539.117 118.284 538.809 117.188 538.187 116.495C537.554 115.806 536.709 115.46 535.643 115.46C534.615 115.46 533.789 115.812 533.172 116.514C532.555 117.217 532.239 118.377 532.239 119.999ZM527.141 119.975C527.141 117.374 527.895 115.35 529.391 113.906C530.89 112.459 532.976 111.734 535.65 111.734C538.398 111.734 540.508 112.443 541.989 113.868C543.474 115.287 544.215 117.281 544.215 119.847C544.215 121.705 543.893 123.228 543.247 124.418C542.596 125.611 541.663 126.538 540.433 127.201C539.208 127.864 537.684 128.194 535.854 128.194C533.993 128.194 532.457 127.907 531.241 127.337C530.021 126.766 529.034 125.857 528.278 124.622C527.514 123.383 527.141 121.837 527.141 119.975Z" fill="#231F20"/>
<path fill-rule="evenodd" clip-rule="evenodd" d="M567.668 112.008H572.772V124.001H580.715V127.928H567.668V112.008Z" fill="#231F20"/>
<path fill-rule="evenodd" clip-rule="evenodd" d="M612.801 121.868L611.011 116.141L609.203 121.868H612.801ZM613.875 125.303H608.118L607.284 127.93H602.082L608.276 112.008H613.851L620.027 127.93H614.697L613.875 125.303Z" fill="#231F20"/>
<path fill-rule="evenodd" clip-rule="evenodd" d="M102.139 105.663C95.0423 104.665 88.0373 103.279 81.1653 101.51C79.2839 100.993 77.4199 100.435 75.5758 99.8308C73.2651 99.0872 71.1212 98.0258 69.2392 96.6984C68.0628 95.8679 67.1839 94.7878 66.6981 93.5753C66.2514 92.2589 66.3791 90.8551 67.0597 89.6024C67.8791 88.0837 69.0344 86.7085 70.4692 85.5386L70.5036 85.5047C73.317 83.4098 76.3736 81.5354 79.6279 79.9269C85.7254 76.7291 91.9862 73.7483 98.3952 70.9973C127.689 58.8472 157.433 47.4501 187.588 36.8349L101.198 49.9299C89.458 54.858 78.1483 60.4598 67.356 66.688C83.0047 45.5826 95.9877 23.2367 106.122 0C102.714 1.31025 98.8635 2.79161 94.767 4.37253C83.8796 27.8473 71.1154 50.7201 56.5607 72.8304C53.6539 74.447 50.8639 76.2002 48.2126 78.0892L55.9518 65.8184L59.948 59.1412C70.5426 42.1662 79.9744 24.7204 88.2239 6.89668C73.6733 12.5251 57.5072 18.8331 47.4334 22.9327L7.24194 130.674C15.3751 121.417 23.1427 111.95 30.5355 102.283L33.5853 98.3016L33.8256 99.0056C34.1794 99.927 34.6802 100.8 35.3108 101.614L35.6623 102.068L33.7914 104.523C24.4833 116.857 14.4419 128.81 3.69915 140.33L0 150C14.9613 136.104 28.8846 121.467 41.6842 106.179C46.9237 109.125 52.7383 111.313 58.8795 112.648C74.4408 116.007 90.4314 117.878 106.532 118.224C131.688 119.157 156.907 118.468 181.95 116.164C183.024 116.051 184.094 115.9 185.154 115.707L185.247 115.685L186.714 115.382L183.6 115.17C156.241 113.269 129.047 110.095 102.139 105.663Z" fill="#231F20"/>
<path fill-rule="evenodd" clip-rule="evenodd" d="M261.011 74.0465L262.63 68.5205C262.72 68.2219 262.815 67.9204 262.922 67.6265C263.175 66.8339 263.548 66.071 264.024 65.3583C264.227 65.0644 264.491 64.7985 264.804 64.5873C265.147 64.3949 265.517 64.2491 265.912 64.1622C266.919 63.9388 267.955 63.8379 268.99 63.8618H277.642H277.721C278.465 63.8467 279.209 63.9499 279.913 64.1639C280.427 64.3226 280.868 64.6142 281.171 65.0067C281.455 65.4056 281.595 65.8675 281.574 66.3323C281.548 67.0736 281.419 67.8084 281.191 68.5205L279.594 74.0465H261.011ZM300.573 92.413C300.233 92.511 299.891 92.6003 299.545 92.6767C296.642 93.236 293.669 93.4862 290.694 93.4261H263.69L263.518 93.4179C262.055 93.3882 260.597 93.3042 259.14 93.1648C258.988 93.1543 258.834 93.1263 258.684 93.089L258.626 93.075C258 92.9257 257.457 92.5857 257.089 92.1261C256.667 91.6589 256.432 91.0816 256.429 90.4931L256.43 90.3397C256.499 89.5011 256.653 88.6636 256.903 87.8506L258.164 83.3802H304.199L307.8 71.359C308.283 69.8059 308.53 68.2044 308.532 66.5994C308.57 64.452 307.933 62.3449 306.687 60.4903C304.884 57.7556 301.814 55.8129 298.245 55.1533C295.222 54.6721 292.151 54.4628 289.077 54.5269H254.092C252.799 54.5176 251.506 54.5835 250.223 54.7258C246.871 55.0145 243.705 56.1768 241.143 58.0548C238.694 60.0441 237.001 62.6272 236.295 65.4587L229.917 86.7565C229.528 88.0092 229.324 89.3016 229.309 90.5963C229.309 90.9089 229.32 91.2145 229.347 91.5196C229.645 94.6479 231.398 97.5389 234.204 99.5399C235.228 100.315 236.392 100.945 237.651 101.397C240.579 102.378 243.703 102.841 246.839 102.756H295.665L300.573 92.413Z" fill="#231F20"/>
<path fill-rule="evenodd" clip-rule="evenodd" d="M354.929 37.2188H324.91C325.39 38.326 325.646 39.4949 325.675 40.6753C325.689 42.4226 325.445 44.1635 324.949 45.8583L311.198 91.5292L310.307 94.2189C309.661 96.1949 308.779 98.1096 307.676 99.9298C307.039 100.883 306.348 101.815 305.609 102.71H337.856C337.436 101.589 337.208 100.428 337.18 99.2515C337.162 97.4902 337.402 95.7283 337.895 94.0189L340.532 85.0298L344.723 82.774L352.921 102.71H382.662C381.641 101.637 380.688 100.512 379.812 99.3483L379.654 99.1179C378.515 97.2966 377.563 95.4011 376.802 93.438L366.87 68.9384L380.428 60.4328C383.777 58.2772 387.257 56.2897 390.861 54.4794H368.376L368.362 54.5085C367.905 55.486 367.291 56.39 366.535 57.217C365.185 58.5455 363.654 59.7225 361.961 60.7209L344.665 71.3867L354.929 37.2188Z" fill="#231F20"/>
<path fill-rule="evenodd" clip-rule="evenodd" d="M416.96 68.1038C417.139 67.5083 417.393 66.9298 417.722 66.3792C418.269 65.3971 419.206 64.6062 420.363 64.1566L420.432 64.1263C420.669 64.0522 420.913 64.0009 421.165 63.9717C422.324 63.851 423.491 63.7973 424.659 63.8189H431.577L431.918 63.8212C432.982 63.8137 434.042 63.9659 435.044 64.2639C435.694 64.4558 436.267 64.7999 436.7 65.2688C437.133 65.7832 437.355 66.4084 437.327 67.0452L437.324 67.2313C437.238 68.3586 437.012 69.4772 436.652 70.5603L430.994 89.2878C430.774 90.0769 430.419 90.8304 429.934 91.5239C429.419 92.2926 428.604 92.8828 427.629 93.1872C427.464 93.2315 427.3 93.2572 427.125 93.2735C426.066 93.3633 425.001 93.396 423.936 93.3808H415.79C414.913 93.3942 414.038 93.3493 413.175 93.2397C412.895 93.2076 412.622 93.1394 412.363 93.0426C412.034 92.9113 411.718 92.7463 411.431 92.5515C410.757 92.1094 410.359 91.4131 410.37 90.6875C410.374 90.5954 410.384 90.5032 410.401 90.4169C410.593 89.5561 410.828 88.6918 411.101 87.8473L416.96 68.1038ZM413.613 54.4852C410.534 54.456 407.458 54.6105 404.404 54.9482C402.484 55.1424 400.608 55.5653 398.826 56.2068C397.474 56.7124 396.229 57.3989 395.139 58.2481C392.78 60.1937 391.12 62.6822 390.346 65.4099L383.979 86.5654C383.534 87.8963 383.289 89.2651 383.249 90.6502C383.212 93.1096 384.032 95.5195 385.603 97.57C387.46 100.12 390.496 101.874 393.941 102.378C394.177 102.423 394.421 102.454 394.659 102.481C397.081 102.674 399.517 102.754 401.948 102.716H435.765C438.552 102.727 441.346 102.6 444.119 102.331C445.499 102.211 446.863 101.953 448.175 101.564C451.698 100.337 454.576 98.046 456.281 95.1276C456.344 95.0255 456.399 94.9223 456.452 94.8202C457.166 93.3126 457.748 91.7642 458.185 90.1813L463.495 72.5461C464.076 70.7632 464.397 68.9203 464.445 67.0686C464.444 65.3586 464.06 63.6638 463.324 62.0739C461.946 58.9357 459.04 56.4815 455.372 55.3477C454.969 55.2101 454.554 55.0987 454.136 55.0095C451.987 54.6129 449.789 54.4338 447.593 54.4852H413.613Z" fill="#231F20"/>
<path fill-rule="evenodd" clip-rule="evenodd" d="M510.933 37.2188H480.916C481.394 38.326 481.653 39.4949 481.679 40.6753C481.698 42.4226 481.453 44.1635 480.949 45.8583L467.2 91.5292L466.31 94.2189C465.664 96.1949 464.786 98.1096 463.677 99.9298C463.037 100.884 462.354 101.815 461.615 102.71H493.859C493.432 101.593 493.202 100.431 493.186 99.2585C493.169 97.5112 493.414 95.768 493.906 94.0714L510.933 37.2188Z" fill="#231F20"/>
<path fill-rule="evenodd" clip-rule="evenodd" d="M552.93 79.801L549.863 89.9378L549.66 90.5461C549.46 91.141 549.179 91.7084 548.817 92.2409C548.669 92.4596 548.477 92.6509 548.244 92.8031C548.163 92.8638 548.076 92.9075 547.975 92.9448C547.687 93.0574 547.378 93.1367 547.063 93.1828C545.918 93.3368 544.771 93.398 543.616 93.3805H536.864C536.025 93.3863 535.192 93.3397 534.368 93.2347C533.86 93.1729 533.367 93.0434 532.907 92.8545C532.493 92.6713 532.142 92.3966 531.897 92.0607C531.59 91.6052 531.436 91.0832 531.454 90.563C531.454 90.4843 531.461 90.4038 531.47 90.3268C531.577 89.7261 531.72 89.1371 531.903 88.5527L533.407 83.6747C533.474 83.4571 533.544 83.2408 533.617 83.0232C533.829 82.3566 534.144 81.7192 534.569 81.1307C534.771 80.8496 535.039 80.6087 535.362 80.4238L535.38 80.411C535.719 80.2419 536.085 80.1171 536.467 80.0488C537.517 79.864 538.585 79.7776 539.654 79.801H552.93ZM517.507 54.4848L511.477 65.6995C512.338 65.2848 513.249 64.9559 514.19 64.7197C517.179 64.0338 520.271 63.7311 523.364 63.8174H550.589C551.297 63.8174 552.001 63.8384 552.709 63.8845C553.497 63.9212 554.274 64.0472 555.027 64.2507C555.551 64.3983 555.999 64.7103 556.266 65.125C556.504 65.5239 556.621 65.9718 556.601 66.4226C556.604 66.8192 556.563 67.2228 556.479 67.6211C556.322 68.4895 555.807 69.2763 555.027 69.8403C554.966 69.8887 554.894 69.9318 554.815 69.9738C554.524 70.108 554.212 70.2089 553.889 70.2625C552.968 70.4182 552.032 70.4841 551.094 70.4661H524.926L522.781 70.4766C521.654 70.4766 520.52 70.5174 519.398 70.6095C517.333 70.8416 515.335 71.4266 513.54 72.3434C512.448 72.9424 511.473 73.6807 510.645 74.5416C508.709 76.6784 507.352 79.1629 506.675 81.8107L505.279 86.4718C504.794 87.9269 504.535 89.4322 504.498 90.9409L504.505 91.2582C504.573 94.5948 506.426 97.7208 509.524 99.7387C510.305 100.284 511.156 100.75 512.063 101.131C515.019 102.263 518.233 102.806 521.465 102.715H537.647C539.899 102.754 542.132 102.412 544.229 101.707C544.556 101.589 544.872 101.444 545.173 101.28C546.604 100.452 547.764 99.3095 548.527 97.9774C548.527 98.4067 548.53 98.8382 548.544 99.2716C548.558 100.443 548.781 101.6 549.198 102.715H576.258C575.885 101.59 575.687 100.429 575.669 99.2558C575.652 97.4957 575.885 95.7326 576.381 94.0244L582.522 73.22L582.633 72.8187C583.274 70.816 583.642 68.7602 583.718 66.6845C583.782 62.9933 581.904 59.4795 578.591 57.1256C577.996 56.6766 577.337 56.2916 576.637 55.9685C574.165 54.9118 571.429 54.4044 568.671 54.4848H517.507Z" fill="#231F20"/>
<path fill-rule="evenodd" clip-rule="evenodd" d="M661.28 54.4844H611.677C609.263 54.499 606.848 54.6961 604.475 55.0658C602.853 55.3032 601.29 55.7698 599.85 56.451C598.625 57.0546 597.563 57.8618 596.718 58.8299C595.056 60.7837 593.796 62.9649 592.985 65.2826L590.075 75.0771C589.813 75.9915 589.678 76.9235 589.69 77.8648C589.626 79.9959 590.326 82.0931 591.691 83.8737C593.487 86.2246 596.45 87.7299 599.704 87.9509C602.101 88.1865 604.521 88.3038 606.936 88.288H623.394C623.872 88.2787 624.345 88.2997 624.805 88.3382C624.963 88.3557 625.115 88.3872 625.26 88.4326C625.622 88.523 625.919 88.7307 626.112 89.0089C626.275 89.2806 626.357 89.5851 626.345 89.8919C626.351 90.3689 626.275 90.8466 626.123 91.3114C625.89 92.0713 625.266 92.6971 624.438 93.0231C623.732 93.278 622.986 93.3981 622.222 93.38H600.13L590.582 93.0867C588.623 92.8592 586.704 92.4533 584.844 91.8777L583.561 102.714H630.987C632.282 102.719 633.589 102.696 634.883 102.649C637.082 102.606 639.257 102.375 641.392 101.948C643.282 101.524 645.043 100.782 646.588 99.7633C648.192 98.7789 649.545 97.5284 650.578 96.0926C650.723 95.8943 650.858 95.696 650.986 95.4843C652.012 93.7259 652.794 91.8689 653.301 89.949L655.529 82.5562C656.06 80.9617 656.363 79.3176 656.427 77.6607C656.427 77.221 656.386 76.7824 656.316 76.3496C655.885 74.1288 654.59 72.1044 652.642 70.6061C652.036 70.1092 651.359 69.6858 650.618 69.3452C648.49 68.4331 646.133 67.9939 643.76 68.0633H623.954C623.318 68.0662 622.677 68.0546 622.041 68.0318C621.738 68.0266 621.44 68.0015 621.143 67.9659C621.009 67.9397 620.869 67.9035 620.74 67.8639C620.373 67.7566 620.07 67.5414 619.86 67.2637C619.679 66.9891 619.586 66.6735 619.603 66.3557C619.586 65.8938 619.708 65.433 619.965 65.0271C620.268 64.5886 620.74 64.2631 621.306 64.0951C621.977 63.8945 622.688 63.8024 623.394 63.8181H646.991C649.732 63.7919 652.479 63.9074 655.197 64.1581C657.098 64.4299 658.952 64.9023 660.72 65.5724L661.28 54.4844Z" fill="#231F20"/>
<path fill-rule="evenodd" clip-rule="evenodd" d="M201.018 54.4772H175.352C175.841 55.5812 176.107 56.7541 176.144 57.9316C176.152 59.6981 175.906 61.4565 175.416 63.1724L166.877 91.5142L165.987 94.2063C165.342 96.1822 164.461 98.0952 163.358 99.9195C162.721 100.878 162.033 101.81 161.295 102.707H193.543C193.04 101.606 192.773 100.435 192.742 99.2464C192.728 97.4956 192.975 95.7518 193.474 94.0588L200.144 71.9573C200.222 71.6867 200.317 71.4202 200.43 71.1618C200.866 70.0374 201.761 69.0943 202.946 68.4936C203.283 68.3414 203.639 68.2241 204.004 68.1337C205.252 67.8655 206.536 67.7424 207.826 67.7739H217.423C218.887 67.7955 220.342 67.9372 221.773 68.1997C223.625 68.5018 225.359 69.2162 226.797 70.2724L231.538 54.4772H216.027C215.24 54.472 214.454 54.4982 213.672 54.5495C211.242 54.6446 208.869 55.187 206.709 56.154C205.473 56.7401 204.374 57.5239 203.474 58.4594C202.291 59.7792 201.263 61.1918 200.404 62.6813C200.612 61.3615 200.742 60.0312 200.795 58.6968L201.018 54.4772Z" fill="#231F20"/>
</svg>
