<svg width="32" height="32" viewBox="0 0 32 32" fill="none" xmlns="http://www.w3.org/2000/svg">
<path d="M0 16C0 8.45753 0 4.68629 2.34315 2.34315C4.68629 0 8.45753 0 16 0V0C23.5425 0 27.3137 0 29.6569 2.34315C32 4.68629 32 8.45753 32 16V16C32 23.5425 32 27.3137 29.6569 29.6569C27.3137 32 23.5425 32 16 32V32C8.45753 32 4.68629 32 2.34315 29.6569C0 27.3137 0 23.5425 0 16V16Z" fill="#0094FF"/>
<path d="M24.9256 6.46141C24.9383 6.46785 24.9492 6.47739 24.9573 6.48912C25.0186 6.57822 24.8483 7.00192 24.29 7.67706C24.0245 7.98917 23.7402 8.28472 23.4386 8.56207C23.306 8.68483 23.1119 8.86301 22.8447 9.07883C22.6051 9.27682 22.3893 9.41346 22.1121 9.59755C21.6725 9.89255 21.1994 10.1916 20.6906 10.4608C19.598 11.0497 18.459 11.5483 17.2852 11.9516C9.322 14.6858 6.50068 11.823 7.07089 9.09862C7.70842 6.04563 13.3531 5.48929 16.3249 6.57031C17.8158 7.11279 19.0749 8.22549 19.562 9.82918C19.6875 10.2664 19.7658 10.7157 19.7956 11.1696C20.1401 15.3274 17.5049 22.0847 14.0678 25.1952C13.8699 25.3654 13.7075 25.5 13.5689 25.6069C13.4303 25.7139 13.3194 25.7931 13.2422 25.8405L13.1214 25.9178C13.1214 25.9178 13.1709 25.8861 13.1076 25.9178C13.0788 25.9367 13.0439 25.944 13.0099 25.9383C12.9759 25.9326 12.9453 25.9143 12.9243 25.887C12.9033 25.8597 12.8934 25.8254 12.8965 25.7912C12.8997 25.7569 12.9156 25.725 12.9412 25.702C12.9888 25.6564 12.9412 25.702 12.963 25.6822C12.9849 25.6624 13.0007 25.6445 13.0303 25.6168C13.0897 25.5575 13.1749 25.4664 13.2838 25.3436C15.9942 22.2788 18.481 14.4701 17.2891 10.5241C16.6001 8.24332 14.9786 7.62558 12.1592 7.81961C10.8287 7.91069 8.69639 8.74224 9.47252 9.84902C9.82494 10.3519 10.5932 10.4291 11.0564 10.4667C12.6918 10.5993 15.23 10.239 16.8298 9.9044C17.3584 9.79161 17.792 9.66885 17.9603 9.62524C18.3405 9.52429 19.0274 9.33424 19.9402 9.03131C20.3361 8.90063 20.6034 8.80362 20.7697 8.74224C20.9677 8.66898 21.1658 8.59375 21.4409 8.48288C21.627 8.40565 21.928 8.28489 22.3101 8.08689C22.4883 7.9978 22.6368 7.91662 22.7398 7.86119L22.8407 7.80179C23.2367 7.58005 23.8168 7.17615 24.1039 6.96628L24.2583 6.85342L24.3652 6.77819L24.4702 6.70097L24.5473 6.64356L24.6306 6.58614C24.7612 6.49507 24.8622 6.42775 24.9256 6.46141Z" fill="white"/>
<path d="M17.3208 7.03748L15.6835 8.33034C15.8448 8.42074 15.9973 8.52614 16.1388 8.64514C16.4992 8.95216 16.7895 9.33298 16.9902 9.76181C17.012 9.80339 17.0278 9.83899 17.0377 9.85884C18.1187 9.59945 19.3324 9.22727 19.3324 9.22727C19.1197 8.76938 18.8365 8.3478 18.4929 7.97792C18.1529 7.60602 17.7576 7.2888 17.3208 7.03748Z" fill="white"/>
<path d="M17.5406 11.8526C17.5406 11.8903 17.5406 11.9417 17.5544 12.0031C17.5682 12.0645 17.5802 12.3179 17.5881 12.6367C17.5881 12.8525 17.5881 13.1277 17.5881 13.4524L19.7561 13.2128C19.7937 12.8485 19.8174 12.4942 19.8254 12.1497C19.8254 12.1497 19.8352 11.615 19.7977 11.1597C19.7977 11.0963 19.7877 11.033 19.7877 11.033C19.7877 10.9868 19.7838 10.9491 19.7759 10.9202C19.5303 11.037 19.275 11.1537 19.0136 11.2666C18.5027 11.4884 18.0118 11.6824 17.5406 11.8526Z" fill="white"/>
</svg>
