<svg width="575" height="150" viewBox="0 0 575 150" fill="none" xmlns="http://www.w3.org/2000/svg">
<g clip-path="url(#clip0_3863_493)">
<mask id="mask0_3863_493" style="mask-type:luminance" maskUnits="userSpaceOnUse" x="0" y="0" width="575" height="150">
<path d="M0 -0.000999369H574.704V150H0V-0.000999369Z" fill="white"/>
</mask>
<g mask="url(#mask0_3863_493)">
<path fill-rule="evenodd" clip-rule="evenodd" d="M190.905 111.81C190.891 111.167 190.859 110.701 190.806 110.407C190.405 110.407 189.91 110.417 189.322 110.444C188.734 110.472 188.105 110.504 187.436 110.545C186.767 110.586 186.088 110.636 185.393 110.703C184.697 110.768 184.057 110.843 183.469 110.922C183.521 110.628 183.568 110.332 183.609 110.038C183.647 109.744 183.667 109.45 183.667 109.156C183.667 108.86 183.647 108.568 183.609 108.272C183.568 107.978 183.521 107.686 183.469 107.39C184.377 107.415 185.198 107.441 185.934 107.465C186.668 107.492 187.416 107.51 188.178 107.524C188.941 107.536 189.77 107.546 190.664 107.561C191.56 107.573 192.637 107.579 193.894 107.579C195.149 107.579 196.227 107.573 197.121 107.561C198.018 107.546 198.839 107.536 199.587 107.524C200.337 107.51 201.065 107.492 201.772 107.465C202.482 107.441 203.248 107.415 204.078 107.39C204.025 107.686 203.978 107.978 203.938 108.272C203.897 108.568 203.879 108.86 203.879 109.156C203.879 109.45 203.897 109.744 203.938 110.038C203.978 110.332 204.025 110.628 204.078 110.922C203.544 110.843 202.942 110.768 202.273 110.703C201.606 110.636 200.945 110.586 200.29 110.545C199.633 110.504 199.013 110.472 198.425 110.444C197.837 110.417 197.342 110.407 196.943 110.407C196.915 110.539 196.894 110.727 196.882 110.967C196.868 111.208 196.862 111.488 196.862 111.81V113.935V123.962C196.862 126.182 196.888 128.153 196.943 129.878C196.998 131.604 197.081 133.295 197.192 134.953C196.736 134.888 196.239 134.858 195.702 134.858H193.894H192.083C191.546 134.858 191.051 134.888 190.595 134.953C190.707 133.295 190.788 131.604 190.842 129.878C190.897 128.153 190.926 126.182 190.926 123.962V113.935C190.926 113.16 190.92 112.451 190.905 111.81Z" fill="#1D1D1B"/>
<path fill-rule="evenodd" clip-rule="evenodd" d="M234.038 112.145C233.798 111.449 233.434 110.922 232.943 110.561C232.45 110.2 231.814 109.967 231.031 109.86C230.248 109.754 229.312 109.7 228.225 109.7C228.13 113.335 228.083 116.97 228.083 120.605C228.243 120.631 228.395 120.652 228.541 120.666C228.689 120.678 228.829 120.686 228.961 120.686C230.721 120.686 232.065 120.212 232.998 119.261C233.93 118.314 234.397 116.877 234.397 114.951C234.397 113.777 234.277 112.84 234.038 112.145ZM228.083 122.324V123.967C228.083 126.187 228.11 128.157 228.164 129.881C228.219 131.606 228.302 133.295 228.414 134.953C227.955 134.888 227.461 134.86 226.923 134.86H225.115H223.305C222.769 134.86 222.273 134.888 221.816 134.953C221.928 133.295 222.009 131.602 222.064 129.876C222.118 128.153 222.147 126.18 222.147 123.96V118.505C222.147 116.285 222.118 114.312 222.064 112.587C222.009 110.861 221.928 109.13 221.816 107.392C222.271 107.441 222.763 107.486 223.298 107.522C223.832 107.561 224.434 107.581 225.101 107.581C225.821 107.581 226.642 107.546 227.564 107.486C228.485 107.423 229.626 107.392 230.988 107.392C232.002 107.392 232.872 107.419 233.592 107.471C234.313 107.524 234.934 107.605 235.455 107.713C235.974 107.818 236.428 107.96 236.815 108.134C237.203 108.307 237.572 108.513 237.918 108.755C238.719 109.343 239.354 110.073 239.82 110.94C240.286 111.812 240.521 112.848 240.521 114.05C240.521 116.003 239.986 117.594 238.92 118.825C237.849 120.056 236.317 120.925 234.313 121.432C235.597 123.705 236.973 125.972 238.443 128.234C239.913 130.493 241.383 132.733 242.853 134.953C242.239 134.888 241.637 134.86 241.049 134.86H239.244H237.421C236.819 134.86 236.211 134.888 235.597 134.953L228.442 122.324H228.083Z" fill="#1D1D1B"/>
<path fill-rule="evenodd" clip-rule="evenodd" d="M268.692 114.942C267.997 116.548 267.344 118.132 266.728 119.699C266.113 121.264 265.511 122.862 264.923 124.496H272.26C271.673 122.862 271.091 121.264 270.517 119.699C269.943 118.132 269.333 116.548 268.692 114.942ZM282.886 134.953C282.243 134.89 281.637 134.86 281.062 134.86H279.356H277.653C277.078 134.86 276.51 134.89 275.95 134.953C275.521 133.643 275.081 132.307 274.626 130.943C274.172 129.576 273.692 128.214 273.183 126.852C272.329 126.819 271.472 126.795 270.618 126.781C269.761 126.764 268.907 126.756 268.052 126.756C267.356 126.756 266.661 126.764 265.965 126.781C265.27 126.795 264.577 126.819 263.881 126.852C263.348 128.214 262.853 129.576 262.399 130.943C261.943 132.307 261.529 133.643 261.156 134.953C260.834 134.89 260.522 134.86 260.211 134.86H259.271H258.308C257.987 134.86 257.639 134.89 257.266 134.953C257.586 134.26 258.016 133.297 258.547 132.066C259.084 130.837 259.672 129.447 260.313 127.896C260.954 126.347 261.643 124.68 262.377 122.904C263.113 121.126 263.849 119.328 264.583 117.511C265.319 115.693 266.038 113.9 266.748 112.136C267.455 110.373 268.104 108.726 268.692 107.204C268.96 107.254 269.213 107.299 269.455 107.336C269.696 107.374 269.949 107.392 270.217 107.392C270.482 107.392 270.738 107.374 270.977 107.336C271.218 107.299 271.472 107.254 271.739 107.204C272.595 109.477 273.509 111.909 274.487 114.5C275.462 117.096 276.443 119.642 277.432 122.142C278.422 124.642 279.385 127.014 280.319 129.258C281.256 131.507 282.112 133.402 282.886 134.953Z" fill="#1D1D1B"/>
<path fill-rule="evenodd" clip-rule="evenodd" d="M300.208 112.587C300.152 110.861 300.07 109.13 299.961 107.392C301.163 107.417 302.351 107.453 303.529 107.504C304.705 107.555 305.895 107.581 307.097 107.581C309.074 107.581 310.832 107.563 312.369 107.524C313.906 107.488 314.942 107.443 315.477 107.392C315.369 107.818 315.317 108.38 315.317 109.073C315.317 109.501 315.329 109.837 315.355 110.077C315.382 110.316 315.422 110.583 315.477 110.877C314.7 110.825 313.853 110.772 312.93 110.717C312.008 110.665 311.112 110.61 310.244 110.557C309.374 110.504 308.594 110.464 307.9 110.438C307.205 110.411 306.71 110.395 306.414 110.395C306.315 111.865 306.258 113.318 306.248 114.76C306.234 116.201 306.228 117.655 306.228 119.123C307.957 119.101 309.522 119.064 310.927 119.018C312.328 118.971 313.792 118.912 315.317 118.841C315.236 119.295 315.181 119.64 315.154 119.881C315.128 120.12 315.116 120.374 315.116 120.64C315.116 120.852 315.136 121.073 315.175 121.3C315.215 121.525 315.262 121.854 315.317 122.28C312.269 122.028 309.238 121.903 306.228 121.903V123.95C306.228 126.172 306.256 128.145 306.309 129.874C306.366 131.6 306.449 133.293 306.556 134.953C306.1 134.89 305.603 134.86 305.068 134.86H303.258H301.447C300.912 134.86 300.417 134.89 299.961 134.953C300.07 133.297 300.152 131.602 300.208 129.878C300.263 128.153 300.291 126.18 300.291 123.962V118.505C300.291 116.285 300.263 114.312 300.208 112.587Z" fill="#1D1D1B"/>
<path fill-rule="evenodd" clip-rule="evenodd" d="M334.413 112.587C334.361 110.861 334.278 109.13 334.166 107.392C334.622 107.443 335.119 107.488 335.656 107.524C336.191 107.563 336.796 107.581 337.463 107.581C338.136 107.581 338.738 107.563 339.275 107.524C339.81 107.488 340.305 107.443 340.761 107.392C340.654 109.13 340.571 110.861 340.514 112.587C340.461 114.312 340.431 116.285 340.431 118.505V123.962C340.431 126.18 340.461 128.153 340.514 129.878C340.571 131.602 340.654 133.297 340.761 134.953C340.305 134.89 339.81 134.86 339.275 134.86H337.463H335.656C335.119 134.86 334.622 134.89 334.166 134.953C334.278 133.297 334.361 131.602 334.413 129.878C334.47 128.153 334.496 126.18 334.496 123.962V118.505C334.496 116.285 334.47 114.312 334.413 112.587Z" fill="#1D1D1B"/>
<path fill-rule="evenodd" clip-rule="evenodd" d="M366.944 129.978C366.97 132.066 367.064 133.722 367.226 134.953C366.77 134.89 366.275 134.86 365.74 134.86H363.931H362.127C361.59 134.86 361.093 134.89 360.639 134.953C360.748 133.297 360.831 131.604 360.886 129.878C360.939 128.153 360.969 126.18 360.969 123.962V118.505C360.969 116.285 360.939 114.312 360.886 112.587C360.831 110.861 360.748 109.13 360.639 107.392C361.093 107.443 361.59 107.488 362.127 107.524C362.66 107.563 363.262 107.581 363.931 107.581C364.602 107.581 365.204 107.563 365.74 107.524C366.275 107.488 366.77 107.443 367.226 107.392C367.09 108.193 367.007 109.397 366.964 111.003C366.926 112.607 366.905 114.385 366.905 116.339V120.189C367.812 119.121 368.789 117.951 369.833 116.68C370.875 115.409 371.877 114.172 372.838 112.97C373.801 111.765 374.67 110.661 375.445 109.659C376.219 108.655 376.781 107.899 377.13 107.392C377.503 107.443 377.878 107.488 378.251 107.524C378.624 107.563 378.999 107.581 379.372 107.581C379.747 107.581 380.13 107.563 380.516 107.524C380.905 107.488 381.324 107.443 381.779 107.392C381.324 107.846 380.631 108.582 379.692 109.598C378.76 110.614 377.762 111.713 376.708 112.887C375.65 114.065 374.644 115.208 373.681 116.317C372.718 117.428 371.97 118.304 371.435 118.947C372.29 120.258 373.239 121.7 374.281 123.279C375.323 124.857 376.361 126.403 377.387 127.914C378.419 129.424 379.372 130.815 380.256 132.086C381.136 133.356 381.846 134.312 382.383 134.953C381.604 134.89 380.911 134.86 380.295 134.86H378.492H376.749C376.173 134.86 375.591 134.89 375.003 134.953C373.639 132.922 372.302 130.856 370.995 128.755C369.685 126.657 368.349 124.563 366.985 122.476H366.905C366.905 125.392 366.918 127.894 366.944 129.978Z" fill="#1D1D1B"/>
<path fill-rule="evenodd" clip-rule="evenodd" d="M406.477 109.368C405.248 109.368 404.245 109.729 403.47 110.448C402.696 111.17 402.306 112.013 402.306 112.974C402.306 113.964 402.611 114.773 403.211 115.401C403.815 116.03 404.569 116.595 405.479 117.106C406.39 117.613 407.367 118.102 408.409 118.568C409.453 119.039 410.428 119.612 411.339 120.291C412.249 120.975 413.005 121.802 413.609 122.777C414.209 123.754 414.51 125.003 414.51 126.528C414.51 127.864 414.256 129.086 413.747 130.195C413.24 131.304 412.517 132.253 411.58 133.042C410.643 133.831 409.524 134.433 408.229 134.846C406.931 135.26 405.479 135.469 403.872 135.469C402.426 135.469 401.135 135.315 399.999 135.009C398.86 134.702 397.996 134.323 397.408 133.871C397.676 132.939 397.903 132.083 398.091 131.308C398.276 130.534 398.438 129.691 398.57 128.782H399.334C399.442 129.37 399.642 129.924 399.936 130.445C400.23 130.966 400.605 131.428 401.06 131.83C401.512 132.229 402.063 132.545 402.704 132.77C403.347 132.997 404.068 133.113 404.869 133.113C406.475 133.113 407.657 132.711 408.421 131.909C409.183 131.106 409.563 130.143 409.563 129.02C409.563 128.004 409.269 127.173 408.679 126.532C408.091 125.889 407.355 125.321 406.471 124.827C405.589 124.332 404.624 123.848 403.58 123.381C402.538 122.913 401.571 122.345 400.689 121.676C399.805 121.007 399.069 120.186 398.479 119.209C397.891 118.234 397.597 116.983 397.597 115.456C397.597 114.065 397.846 112.837 398.341 111.764C398.84 110.696 399.503 109.8 400.334 109.076C401.167 108.354 402.124 107.807 403.209 107.431C404.291 107.058 405.435 106.87 406.639 106.87C408.083 106.87 409.346 107.044 410.428 107.393C411.509 107.742 412.44 108.224 413.214 108.843C412.973 109.461 412.766 110.057 412.594 110.631C412.419 111.205 412.198 111.932 411.931 112.816H411.331C410.473 110.515 408.855 109.368 406.477 109.368Z" fill="#1D1D1B"/>
<path fill-rule="evenodd" clip-rule="evenodd" d="M438.768 129.978C438.794 132.066 438.89 133.722 439.05 134.953C438.594 134.89 438.099 134.86 437.564 134.86H435.755H433.951C433.416 134.86 432.917 134.89 432.465 134.953C432.572 133.297 432.655 131.604 432.71 129.878C432.765 128.153 432.793 126.18 432.793 123.962V118.505C432.793 116.285 432.765 114.312 432.71 112.587C432.655 110.861 432.572 109.13 432.465 107.392C432.917 107.443 433.416 107.488 433.951 107.524C434.484 107.563 435.088 107.581 435.755 107.581C436.426 107.581 437.027 107.563 437.564 107.524C438.099 107.488 438.594 107.443 439.05 107.392C438.916 108.193 438.831 109.397 438.788 111.003C438.75 112.607 438.73 114.385 438.73 116.339V120.189C439.638 119.121 440.615 117.951 441.657 116.68C442.699 115.409 443.701 114.172 444.664 112.97C445.627 111.765 446.495 110.661 447.269 109.659C448.044 108.655 448.607 107.899 448.954 107.392C449.327 107.443 449.702 107.488 450.075 107.524C450.45 107.563 450.823 107.581 451.198 107.581C451.571 107.581 451.954 107.563 452.34 107.524C452.729 107.488 453.151 107.443 453.603 107.392C453.151 107.846 452.455 108.582 451.519 109.598C450.586 110.614 449.586 111.713 448.532 112.887C447.476 114.065 446.468 115.208 445.505 116.317C444.542 117.428 443.794 118.304 443.259 118.947C444.116 120.258 445.063 121.7 446.105 123.279C447.147 124.857 448.185 126.403 449.213 127.914C450.243 129.424 451.198 130.815 452.08 132.086C452.962 133.356 453.672 134.312 454.207 134.953C453.43 134.89 452.735 134.86 452.119 134.86H450.316H448.575C447.997 134.86 447.417 134.89 446.827 134.953C445.465 132.922 444.129 130.856 442.819 128.755C441.509 126.657 440.173 124.563 438.809 122.476H438.73C438.73 125.392 438.742 127.894 438.768 129.978Z" fill="#1D1D1B"/>
<path fill-rule="evenodd" clip-rule="evenodd" d="M492.281 115.693C491.855 114.319 491.263 113.149 490.503 112.186C489.743 111.223 488.824 110.481 487.746 109.96C486.665 109.439 485.489 109.179 484.21 109.179C482.85 109.179 481.631 109.506 480.553 110.16C479.472 110.817 478.56 111.705 477.813 112.829C477.065 113.95 476.5 115.267 476.117 116.778C475.729 118.288 475.535 119.896 475.535 121.605C475.535 123.746 475.762 125.549 476.216 127.018C476.668 128.49 477.282 129.672 478.053 130.566C478.827 131.461 479.719 132.111 480.733 132.511C481.745 132.914 482.811 133.115 483.93 133.115C485.128 133.115 486.274 132.859 487.367 132.351C488.459 131.846 489.41 131.069 490.223 130.027C491.036 128.983 491.689 127.661 492.182 126.057C492.677 124.454 492.92 122.558 492.92 120.362C492.92 118.627 492.709 117.072 492.281 115.693ZM470.042 115.655C470.776 113.917 471.812 112.393 473.146 111.083C474.484 109.771 476.1 108.743 477.996 107.993C479.894 107.245 482.004 106.872 484.328 106.872C486.467 106.872 488.455 107.166 490.298 107.754C492.143 108.34 493.747 109.224 495.107 110.4C496.472 111.576 497.546 113.068 498.335 114.872C499.122 116.677 499.515 118.783 499.515 121.19C499.515 123.197 499.136 125.068 498.374 126.806C497.613 128.543 496.557 130.06 495.209 131.357C493.861 132.655 492.249 133.664 490.379 134.386C488.51 135.108 486.454 135.469 484.21 135.469C482.097 135.469 480.115 135.207 478.257 134.686C476.4 134.165 474.785 133.324 473.41 132.16C472.031 130.996 470.945 129.512 470.144 127.708C469.339 125.903 468.939 123.744 468.939 121.23C468.939 119.251 469.308 117.392 470.042 115.655Z" fill="#1D1D1B"/>
<path fill-rule="evenodd" clip-rule="evenodd" d="M517.464 112.587C517.411 110.861 517.328 109.13 517.217 107.392C517.673 107.443 518.172 107.488 518.707 107.524C519.242 107.563 519.846 107.581 520.515 107.581C521.186 107.581 521.791 107.563 522.326 107.524C522.861 107.488 523.356 107.443 523.812 107.392C523.705 109.128 523.621 110.857 523.565 112.581C523.512 114.304 523.484 116.272 523.484 118.49V123.938C523.484 125.461 523.492 126.929 523.506 128.346C523.524 129.763 523.548 130.99 523.577 132.032C525.101 132.032 526.624 131.995 528.147 131.92C529.673 131.843 531.21 131.719 532.759 131.545C532.706 131.839 532.664 132.105 532.637 132.346C532.611 132.587 532.599 132.92 532.599 133.349C532.599 133.775 532.611 134.112 532.637 134.351C532.664 134.592 532.706 134.793 532.759 134.953C532.037 134.921 531.147 134.898 530.095 134.882C529.037 134.866 527.589 134.86 525.744 134.86H521.766H519.372C518.77 134.86 518.312 134.866 518.003 134.882C517.693 134.898 517.432 134.921 517.217 134.953C517.328 133.297 517.411 131.602 517.464 129.878C517.521 128.153 517.545 126.18 517.545 123.962V118.505C517.545 116.285 517.521 114.312 517.464 112.587Z" fill="#1D1D1B"/>
<path fill-rule="evenodd" clip-rule="evenodd" d="M559.241 114.942C558.546 116.548 557.889 118.132 557.274 119.699C556.658 121.264 556.058 122.862 555.472 124.496H562.807C562.221 122.862 561.638 121.264 561.064 119.699C560.49 118.132 559.88 116.548 559.241 114.942ZM573.435 134.953C572.792 134.89 572.182 134.86 571.608 134.86H569.903H568.202C567.624 134.86 567.059 134.89 566.497 134.953C566.069 133.643 565.627 132.307 565.173 130.943C564.717 129.576 564.237 128.214 563.732 126.852C562.874 126.819 562.021 126.795 561.163 126.781C560.31 126.764 559.454 126.756 558.6 126.756C557.905 126.756 557.21 126.764 556.514 126.781C555.819 126.795 555.123 126.819 554.43 126.852C553.893 128.214 553.4 129.576 552.946 130.943C552.49 132.307 552.076 133.643 551.703 134.953C551.381 134.89 551.067 134.86 550.76 134.86H549.818H548.855C548.534 134.86 548.188 134.89 547.812 134.953C548.135 134.26 548.561 133.297 549.096 132.066C549.629 130.837 550.219 129.447 550.86 127.896C551.502 126.347 552.19 124.68 552.926 122.904C553.658 121.126 554.394 119.328 555.132 117.511C555.863 115.693 556.587 113.9 557.295 112.136C558.004 110.373 558.653 108.726 559.241 107.204C559.507 107.254 559.758 107.299 560.001 107.336C560.243 107.374 560.496 107.392 560.764 107.392C561.031 107.392 561.285 107.374 561.526 107.336C561.765 107.299 562.019 107.254 562.286 107.204C563.142 109.477 564.058 111.909 565.033 114.5C566.009 117.096 566.992 119.642 567.981 122.142C568.971 124.642 569.93 127.014 570.866 129.258C571.803 131.507 572.657 133.402 573.435 134.953Z" fill="#1D1D1B"/>
<path fill-rule="evenodd" clip-rule="evenodd" d="M211.5 47.1434C214.818 49.1161 217.943 51.4679 220.87 54.1989C223.798 56.9339 225.262 60.3825 225.262 64.5509C225.262 70.5237 223.107 75.2131 218.802 78.6212C214.496 82.0293 209.077 83.7344 202.548 83.7344C198.55 83.7344 195.13 83.1809 192.288 82.078C189.445 80.973 186.195 80.081 182.536 79.3997C182.481 77.3743 182.453 74.6698 182.453 71.2921C182.453 67.9124 182.365 64.928 182.199 62.3369C182.199 62.1707 182.434 62.0146 182.909 61.8727C183.381 61.7328 183.785 61.6618 184.121 61.6618C184.508 61.6618 184.884 61.7186 185.246 61.8321C185.609 61.9416 185.818 62.1099 185.875 62.3349C186.949 67.3285 189.2 71.4543 192.628 74.7083C196.055 77.9623 199.372 79.5883 202.581 79.5883C205.847 79.5883 208.197 78.8746 209.632 77.4433C211.068 76.0119 211.787 74.0636 211.787 71.5942C211.787 68.5632 210.322 66.0106 207.392 63.9345C204.462 61.8585 201.31 59.8392 197.93 57.8746C194.494 55.9039 191.31 53.5663 188.383 50.8597C185.453 48.1571 183.989 44.8322 183.989 40.8888C183.989 35.65 185.974 31.2423 189.946 27.6639C193.918 24.0876 199.367 22.2973 206.295 22.2973C209.393 22.2973 212.069 22.6744 214.322 23.4286C216.574 24.1828 218.999 24.8113 221.59 25.3141C221.645 27.3477 221.742 29.8921 221.884 32.9433C222.026 35.9987 222.206 38.5127 222.435 40.4894C222.435 40.6597 222.196 40.8138 221.722 40.9557C221.247 41.0976 220.87 41.1686 220.591 41.1686C220.199 41.1686 219.81 41.1118 219.419 41.0003C219.027 40.8888 218.776 40.7185 218.666 40.4955C217.59 36.1203 216.007 32.6859 213.912 30.1881C211.82 27.6923 209.249 26.4434 206.202 26.4434C203.55 26.4434 201.462 27.1469 199.937 28.5479C198.413 29.9509 197.652 31.7168 197.652 33.8476C197.652 36.6556 199.073 39.054 201.916 41.0429C204.758 43.0338 207.954 45.0673 211.5 47.1434Z" fill="#1D1D1B"/>
<path fill-rule="evenodd" clip-rule="evenodd" d="M265.78 47.9352C265.78 48.5475 265.68 49.2024 265.484 49.8998C265.287 50.5972 265.019 50.946 264.683 50.946L252.117 50.5689V72.4853C252.117 74.0667 252.441 75.2365 253.09 75.9988C253.739 76.7612 254.854 77.1403 256.435 77.1403C257.678 77.1403 258.848 76.8159 259.949 76.1651C261.05 75.5143 261.997 74.7094 262.787 73.7484C263.012 73.4119 263.294 73.2983 263.633 73.4119C263.971 73.5234 264.281 73.72 264.565 74.0018C264.79 74.2857 265.001 74.6405 265.2 75.0642C265.397 75.4879 265.496 75.8427 265.496 76.1246V76.4652C265.496 76.5767 265.439 76.6638 265.328 76.7186C264.144 78.2473 262.339 79.705 259.914 81.0917C257.49 82.4765 254.641 83.1719 251.373 83.1719C246.748 83.1719 243.251 81.9433 240.885 79.486C238.515 77.0288 237.359 73.0307 237.416 67.4958L237.605 51.5664C237.605 51.2278 237.519 50.946 237.351 50.7189C237.185 50.4938 236.932 50.3783 236.595 50.3783H231.378C231.155 50.3783 230.959 50.135 230.79 49.6444C230.622 49.1558 230.539 48.801 230.539 48.584C230.539 48.3651 230.622 48.0265 230.79 47.5642C230.959 47.102 231.127 46.8141 231.295 46.7046C234.436 45.0097 237.59 43.0187 240.759 40.7298C243.928 38.4428 246.604 36.1681 248.792 33.9075C248.903 33.7392 249.169 33.5831 249.591 33.4412C250.01 33.3013 250.361 33.2303 250.643 33.2303C251.034 33.2303 251.44 33.3013 251.861 33.4412C252.283 33.5831 252.494 33.7392 252.494 33.9075L252.21 45.0076H264.685C265.019 45.0076 265.287 45.3726 265.484 46.0964C265.68 46.8202 265.78 47.4345 265.78 47.9352Z" fill="#1D1D1B"/>
<path fill-rule="evenodd" clip-rule="evenodd" d="M294.626 53.4325C294.626 51.7477 294.251 50.3143 293.501 49.1344C292.751 47.9524 291.627 47.3624 290.129 47.3624C288.294 47.3624 286.934 48.2626 286.046 50.0609C285.156 51.8612 284.574 54.2212 284.296 57.1427L291.129 56.9744C292.349 56.9176 293.237 56.6784 293.793 56.2587C294.348 55.837 294.626 54.8943 294.626 53.4325ZM308.666 59.8473C308.666 60.2446 308.524 60.5548 308.244 60.7819C307.966 61.0069 307.571 61.1205 307.068 61.1205H283.875C283.818 61.5138 283.789 62.0349 283.789 62.6816V64.4921C283.789 69.214 284.562 72.5024 286.105 74.3575C287.648 76.2126 289.878 77.1392 292.795 77.1392C294.817 77.1392 297.087 76.6343 299.613 75.6226C302.14 74.613 303.964 73.3519 305.085 71.8354C305.142 71.7259 305.308 71.7665 305.588 71.9652C305.866 72.1618 306.117 72.3423 306.34 72.5106C306.62 72.7944 306.857 73.0884 307.054 73.3965C307.249 73.7067 307.346 74.0027 307.346 74.2845C307.346 74.3961 307.332 74.5096 307.305 74.6231C307.277 74.7346 307.206 74.8482 307.093 74.9597C305.686 76.9851 303.605 78.9537 300.846 80.8656C298.089 82.7774 294.403 83.7344 289.789 83.7344C283.767 83.7344 278.701 81.7901 274.593 77.9015C270.485 74.0108 268.432 69.4187 268.432 64.119C268.432 58.1442 270.386 53.1993 274.293 49.2803C278.202 45.3654 283.362 43.4048 289.772 43.4048C295.619 43.4048 300.23 44.9883 303.605 48.151C306.979 51.3179 308.666 55.2166 308.666 59.8473Z" fill="#1D1D1B"/>
<path fill-rule="evenodd" clip-rule="evenodd" d="M365.393 80.671C365.393 81.0055 365.322 81.3948 365.18 81.8408C365.04 82.2848 364.886 82.5078 364.718 82.5078C362.974 82.5078 360.959 82.4146 358.674 82.226C356.389 82.0375 354.258 81.9442 352.28 81.9442C350.358 81.9442 348.464 82.0375 346.601 82.226C344.734 82.4146 342.955 82.5078 341.261 82.5078C341.09 82.5078 340.934 82.2848 340.794 81.8408C340.652 81.3948 340.581 81.0055 340.581 80.671C340.581 80.3385 340.652 79.9634 340.794 79.5457C340.934 79.1261 341.09 78.8889 341.261 78.8341C342.39 78.6618 343.241 78.1083 343.805 77.1655C344.371 76.2228 344.654 74.3839 344.654 71.6428V58.2314C344.654 55.4194 344.33 53.4224 343.679 52.2424C343.028 51.0604 341.713 50.4705 339.732 50.4705C338.092 50.4705 336.762 51.0179 335.744 52.1127C334.724 53.2075 333.706 54.9612 332.689 57.3718V71.6428C332.689 74.1548 332.956 75.9511 333.493 77.0358C334.031 78.1205 334.866 78.7206 335.997 78.8341C336.168 78.8341 336.324 79.0429 336.466 79.4606C336.606 79.8803 336.677 80.2817 336.677 80.671C336.677 81.0602 336.606 81.4657 336.466 81.8834C336.324 82.299 336.17 82.5078 336.001 82.5078C334.258 82.5078 332.486 82.4146 330.686 82.226C328.885 82.0375 327 81.9442 325.033 81.9442C323.062 81.9442 320.94 82.0375 318.661 82.226C316.38 82.4146 314.395 82.5078 312.708 82.5078C312.54 82.5078 312.384 82.299 312.244 81.8834C312.102 81.4657 312.033 81.0602 312.033 80.671C312.033 80.2817 312.102 79.8924 312.244 79.5032C312.384 79.1139 312.54 78.8889 312.708 78.8341C315.186 78.4915 316.747 77.9056 317.394 77.0784C318.042 76.2512 318.365 74.4407 318.365 71.6428V58.3085C318.365 55.9323 318.111 54.4178 317.605 53.767C317.1 53.1162 315.804 52.6763 313.722 52.4492C313.552 52.4492 313.398 52.2221 313.256 51.77C313.116 51.3159 313.047 50.9489 313.047 50.6631C313.047 50.3812 313.116 50.0264 313.256 49.6007C313.398 49.177 313.552 48.9641 313.722 48.9641C315.636 48.4653 318.263 47.5935 321.607 46.3467C324.95 45.1018 327.409 44.0901 328.98 43.3136C329.149 43.2062 329.431 43.0663 329.824 42.9001C330.217 42.7338 330.554 42.6507 330.834 42.6507C331.509 42.6507 331.999 42.7784 332.309 43.0318C332.62 43.2853 332.743 43.5265 332.689 43.7516L332.312 51.8836C333.443 49.1425 335.241 47.0441 337.704 45.5864C340.166 44.1327 342.757 43.4029 345.476 43.4029C349.721 43.4029 353.032 44.7247 355.41 47.3665C357.788 50.0082 358.978 52.9581 358.978 56.2182V71.6428C358.978 74.3839 359.315 76.1944 359.992 77.0784C360.665 77.9644 362.242 78.5483 364.718 78.8341C364.886 78.8341 365.04 79.0713 365.18 79.5437C365.322 80.0181 365.393 80.3932 365.393 80.671Z" fill="#1D1D1B"/>
<path fill-rule="evenodd" clip-rule="evenodd" d="M390.764 59.0576C393.122 60.0693 395.352 61.3993 397.456 63.0557C399.563 64.7101 400.617 67.0234 400.617 69.9996C400.617 73.9835 399.026 77.2375 395.849 79.7596C392.67 82.2838 388.55 83.5469 383.488 83.5469C379.887 83.5469 377.302 83.1536 375.727 82.3689C374.149 81.5843 371.901 81.191 368.977 81.191C368.805 79.7901 368.582 77.7829 368.3 75.1736C368.02 72.5643 367.767 70.6991 367.542 69.5759C367.487 69.4076 367.692 69.2556 368.166 69.1136C368.641 68.9737 369.018 68.9028 369.296 68.9028C369.683 68.9028 370.086 68.9737 370.504 69.1136C370.924 69.2515 371.161 69.4036 371.218 69.5698C372.402 72.5157 374.064 74.8877 376.209 76.6922C378.352 78.4986 380.525 79.4008 382.725 79.4008C384.416 79.4008 385.683 78.9568 386.533 78.0667C387.376 77.1787 387.802 75.9521 387.802 74.3951C387.802 72.5603 386.729 71.1289 384.592 70.099C382.452 69.069 380.282 68.0533 378.091 67.0538C375.67 65.9874 373.432 64.5844 371.376 62.8448C369.32 61.1053 368.296 58.7231 368.296 55.6921C368.296 52.2151 370.054 49.2956 373.573 46.9417C377.091 44.5859 380.931 43.4059 385.099 43.4059C387.798 43.4059 390.121 43.7364 392.062 44.3953C394.006 45.0562 395.934 45.3847 397.848 45.3847C397.848 46.6255 397.905 48.3123 398.016 50.4512C398.128 52.5922 398.241 54.3662 398.355 55.7732C398.355 55.9435 398.117 56.0976 397.645 56.2395C397.171 56.3814 396.796 56.4483 396.518 56.4483C396.127 56.4483 395.737 56.3936 395.348 56.2841C394.957 56.1726 394.736 56.0063 394.681 55.7833C394.059 53.2328 392.919 51.2257 391.259 49.7558C389.598 48.2859 387.867 47.552 386.064 47.552C384.374 47.552 383.08 47.8865 382.18 48.5535C381.28 49.2206 380.828 50.2748 380.828 51.7224C380.828 53.612 381.951 55.0839 384.195 56.1402C386.442 57.1964 388.629 58.1676 390.764 59.0576Z" fill="#1D1D1B"/>
<path fill-rule="evenodd" clip-rule="evenodd" d="M439.022 47.9352C439.022 48.5475 438.923 49.2024 438.726 49.8998C438.529 50.5972 438.262 50.946 437.925 50.946L425.359 50.5689V72.4853C425.359 74.0667 425.684 75.2365 426.332 75.9988C426.981 76.7612 428.096 77.1403 429.678 77.1403C430.92 77.1403 432.09 76.8159 433.191 76.1651C434.292 75.5143 435.239 74.7094 436.029 73.7484C436.255 73.4119 436.536 73.2983 436.875 73.4119C437.213 73.5234 437.524 73.72 437.808 74.0018C438.033 74.2857 438.243 74.6405 438.442 75.0642C438.639 75.4879 438.738 75.8427 438.738 76.1246V76.4652C438.738 76.5767 438.681 76.6638 438.57 76.7186C437.386 78.2473 435.581 79.705 433.157 81.0917C430.732 82.4765 427.883 83.1719 424.615 83.1719C419.991 83.1719 416.493 81.9433 414.127 79.486C411.757 77.0288 410.602 73.0307 410.658 67.4958L410.847 51.5664C410.847 51.2278 410.762 50.946 410.593 50.7189C410.427 50.4938 410.174 50.3783 409.837 50.3783H404.621C404.398 50.3783 404.201 50.135 404.033 49.6444C403.866 49.1558 403.781 48.801 403.781 48.584C403.781 48.3651 403.866 48.0265 404.033 47.5642C404.201 47.102 404.369 46.8141 404.537 46.7046C407.678 45.0097 410.833 43.0187 414.001 40.7298C417.17 38.4428 419.847 36.1681 422.034 33.9075C422.146 33.7392 422.411 33.5831 422.831 33.4412C423.253 33.3013 423.603 33.2303 423.885 33.2303C424.276 33.2303 424.682 33.3013 425.104 33.4412C425.525 33.5831 425.736 33.7392 425.736 33.9075L425.452 45.0076H437.925C438.262 45.0076 438.529 45.3726 438.726 46.0964C438.923 46.8202 439.022 47.4345 439.022 47.9352Z" fill="#1D1D1B"/>
<path fill-rule="evenodd" clip-rule="evenodd" d="M465.43 63.3827C462.101 64.1754 459.702 65.252 458.236 66.6103C456.768 67.9687 456.037 69.9231 456.037 72.4696C456.037 73.8868 456.416 75.0181 457.178 75.8676C457.94 76.717 458.999 77.1408 460.353 77.1408C461.48 77.1408 462.51 76.786 463.441 76.0784C464.371 75.3708 464.949 74.0267 465.176 72.0438L465.43 63.3827ZM486.184 78.2903C486.13 78.4586 486.101 78.6005 486.101 78.7141C486.101 78.8235 486.016 78.9391 485.848 79.0506C484.777 80.2873 483.119 81.299 480.868 82.0857C478.618 82.8703 476.317 83.2656 473.961 83.2656C471.664 83.2656 469.799 82.7446 468.369 81.7065C466.94 80.6665 466.001 79.2757 465.553 77.5321C464.256 79.4987 462.607 80.9463 460.608 81.8728C458.607 82.8013 456.14 83.2656 453.21 83.2656C449.999 83.2656 447.278 82.5317 445.052 81.0679C442.826 79.6041 441.715 77.378 441.715 74.3896C441.715 71.0666 443.542 68.36 447.195 66.2758C450.848 64.1896 456.977 62.1905 465.582 60.2726L465.835 52.0311C465.835 50.2936 465.582 49.1441 465.075 48.5825C464.568 48.0229 463.723 47.7411 462.541 47.7411C461.357 47.7411 460.272 47.9661 459.287 48.4162C458.299 48.8643 457.75 49.7908 457.638 51.1958C457.354 54.6789 456.625 57.0936 455.443 58.4398C454.259 59.7901 452.515 60.4612 450.206 60.4612C448.122 60.4612 446.53 59.859 445.433 58.6507C444.334 57.4443 443.787 55.9988 443.787 54.316C443.787 51.5101 446.078 48.9271 450.662 46.5672C455.244 44.2093 460.377 43.0294 466.056 43.0294C471.23 43.0294 474.758 44.3249 476.643 46.9119C478.527 49.4968 479.384 53.0124 479.216 57.4565L478.839 72.133C478.728 74.1037 479.009 75.383 479.684 75.973C480.36 76.563 481.006 76.859 481.627 76.859C482.134 76.859 482.61 76.7738 483.06 76.6035C483.51 76.4373 483.904 76.2102 484.242 75.9304C484.467 75.7621 484.848 75.973 485.382 76.563C485.917 77.1529 486.184 77.7287 486.184 78.2903Z" fill="#1D1D1B"/>
<path fill-rule="evenodd" clip-rule="evenodd" d="M539.483 80.671C539.483 81.0055 539.412 81.3948 539.27 81.8408C539.13 82.2848 538.974 82.5078 538.806 82.5078C537.062 82.5078 535.049 82.4146 532.762 82.226C530.479 82.0375 528.346 81.9442 526.37 81.9442C524.445 81.9442 522.552 82.0375 520.689 82.226C518.823 82.4146 517.043 82.5078 515.348 82.5078C515.178 82.5078 515.024 82.2848 514.882 81.8408C514.74 81.3948 514.669 81.0055 514.669 80.671C514.669 80.3385 514.74 79.9634 514.882 79.5457C515.024 79.1261 515.178 78.8889 515.348 78.8341C516.48 78.6618 517.329 78.1083 517.895 77.1655C518.459 76.2228 518.744 74.3839 518.744 71.6428V58.2314C518.744 55.4194 518.418 53.4224 517.767 52.2424C517.116 51.0604 515.801 50.4705 513.822 50.4705C512.18 50.4705 510.85 51.0179 509.832 52.1127C508.812 53.2075 507.796 54.9612 506.776 57.3718V71.6428C506.776 74.1548 507.044 75.9511 507.581 77.0358C508.119 78.1205 508.954 78.7206 510.087 78.8341C510.256 78.8341 510.412 79.0429 510.554 79.4606C510.696 79.8803 510.764 80.2817 510.764 80.671C510.764 81.0602 510.696 81.4657 510.554 81.8834C510.412 82.299 510.258 82.5078 510.089 82.5078C508.346 82.5078 506.574 82.4146 504.773 82.226C502.973 82.0375 501.09 81.9442 499.121 81.9442C497.15 81.9442 495.028 82.0375 492.749 82.226C490.47 82.4146 488.485 82.5078 486.798 82.5078C486.628 82.5078 486.474 82.299 486.332 81.8834C486.19 81.4657 486.121 81.0602 486.121 80.671C486.121 80.2817 486.19 79.8924 486.332 79.5032C486.474 79.1139 486.628 78.8889 486.798 78.8341C489.274 78.4915 490.835 77.9056 491.482 77.0784C492.13 76.2512 492.455 74.4407 492.455 71.6428V58.3085C492.455 55.9323 492.201 54.4178 491.694 53.767C491.188 53.1162 489.892 52.6763 487.81 52.4492C487.642 52.4492 487.486 52.2221 487.346 51.77C487.204 51.3159 487.135 50.9489 487.135 50.6631C487.135 50.3812 487.204 50.0264 487.346 49.6007C487.486 49.177 487.642 48.9641 487.81 48.9641C489.726 48.4653 492.353 47.5935 495.697 46.3467C499.038 45.1018 501.497 44.0901 503.07 43.3136C503.239 43.2062 503.518 43.0663 503.912 42.9001C504.305 42.7338 504.642 42.6507 504.923 42.6507C505.597 42.6507 506.089 42.7784 506.397 43.0318C506.708 43.2853 506.833 43.5265 506.776 43.7516L506.399 51.8836C507.533 49.1425 509.329 47.0441 511.792 45.5864C514.254 44.1327 516.845 43.4029 519.563 43.4029C523.809 43.4029 527.122 44.7247 529.5 47.3665C531.876 50.0082 533.066 52.9581 533.066 56.2182V71.6428C533.066 74.3839 533.403 76.1944 534.08 77.0784C534.753 77.9644 536.33 78.5483 538.806 78.8341C538.974 78.8341 539.13 79.0713 539.27 79.5437C539.412 80.0181 539.483 80.3932 539.483 80.671Z" fill="#1D1D1B"/>
<path fill-rule="evenodd" clip-rule="evenodd" d="M564.852 59.0576C567.208 60.0693 569.44 61.3993 571.545 63.0557C573.651 64.7101 574.704 67.0234 574.704 69.9996C574.704 73.9835 573.114 77.2375 569.937 79.7596C566.758 82.2838 562.638 83.5469 557.576 83.5469C553.975 83.5469 551.388 83.1536 549.813 82.3689C548.238 81.5843 545.987 81.191 543.064 81.191C542.895 79.7901 542.668 77.7829 542.389 75.1736C542.107 72.5643 541.853 70.6991 541.63 69.5759C541.573 69.4076 541.78 69.2556 542.255 69.1136C542.729 68.9737 543.104 68.9028 543.382 68.9028C543.771 68.9028 544.175 68.9737 544.592 69.1136C545.012 69.2515 545.249 69.4036 545.304 69.5698C546.488 72.5157 548.152 74.8877 550.297 76.6922C552.44 78.4986 554.612 79.4008 556.812 79.4008C558.505 79.4008 559.774 78.9568 560.619 78.0667C561.465 77.1787 561.888 75.9521 561.888 74.3951C561.888 72.5603 560.818 71.1289 558.679 70.099C556.54 69.069 554.373 68.0533 552.179 67.0538C549.758 65.9874 547.52 64.5844 545.464 62.8448C543.408 61.1053 542.382 58.7231 542.382 55.6921C542.382 52.2151 544.142 49.2956 547.66 46.9417C551.179 44.5859 555.019 43.4059 559.186 43.4059C561.886 43.4059 564.21 43.7364 566.152 44.3953C568.092 45.0562 570.022 45.3847 571.936 45.3847C571.936 46.6255 571.991 48.3123 572.102 50.4512C572.216 52.5922 572.33 54.3662 572.441 55.7732C572.441 55.9435 572.204 56.0976 571.733 56.2395C571.259 56.3814 570.884 56.4483 570.604 56.4483C570.215 56.4483 569.824 56.3936 569.436 56.2841C569.045 56.1726 568.824 56.0063 568.767 55.7833C568.147 53.2328 567.005 51.2257 565.345 49.7558C563.685 48.2859 561.953 47.552 560.153 47.552C558.462 47.552 557.168 47.8865 556.268 48.5535C555.366 49.2206 554.916 50.2748 554.916 51.7224C554.916 53.612 556.037 55.0839 558.284 56.1402C560.528 57.1964 562.717 58.1676 564.852 59.0576Z" fill="#1D1D1B"/>
<path d="M129.893 61.0385H129.376V61.3223H129.044V61.7663H128.634V61.5372H128.377V58.0501H125.333V58.3866H124.476V58.1271H124.161L124.056 57.6709H121.224V57.9953H120.944V58.9421H119.721V60.114L118.515 61.2392V59.6923L118.016 59.226L117.272 59.6254V59.2017H116.634L116.127 48.5617H115.565L121.218 46.1288C127.945 46.583 134.471 47.0898 140.817 47.619C142.313 50.9946 143.562 54.5 144.521 58.1271H144.026V58.4961H143.156V57.2249H143.037V56.933H140.198V56.7464H139.724C139.724 56.7464 139.724 56.3551 139.531 56.3551C139.337 56.3551 139.116 56.7748 139.116 56.7748H137.034V58.3116H135.852V58.5062H135.604V57.0728H135.057V55.7895C135.057 55.7895 134.793 55.5563 134.895 55.4529C134.996 55.3495 135.089 55.1711 135.089 55.1711V54.8386H134.917L133.473 54.8123H132.012V54.4859H131.722V54.2811H131.12L130.925 54.4757H130.613V55.0312H130.475V57.3547C130.475 57.3547 130.108 57.3871 130.108 57.5939C130.108 57.8007 130.065 57.9852 130.065 57.9852H129.893V61.0385ZM115.458 45.7558C117.011 45.8531 118.552 45.9504 120.084 46.0538L115.458 48.0447V45.7558ZM114.941 47.9981L108.834 45.3685C110.886 45.4821 112.921 45.5997 114.941 45.7254V47.9981ZM114.941 48.5617H114.272L113.893 57.0181H113.392V57.4418C113.392 57.4418 113.096 57.231 113.096 56.7586V55.682C113.096 55.682 113.059 56.8073 112.885 56.9695C112.711 57.1316 112.711 57.4743 112.711 57.4743H112.08V60.3593H111.8C111.8 60.3593 111.626 60.1647 111.328 60.1647H110.839C110.839 60.1647 110.509 60.0653 110.245 60.1647C109.984 60.262 109.834 60.3978 109.834 60.3978H109.564V60.8155H109.284V59.6578C109.284 59.6578 109.205 59.1935 109.108 59.1043C109.015 59.0151 108.907 59.1124 108.907 59.1124V57.6547L107.966 56.9695L107.413 56.9654C107.413 56.9654 107.052 57.3972 106.866 57.4418C106.679 57.4864 106.643 57.6061 106.643 57.7906V58.8874H106.48V59.0192H106.259V58.8327H105.874V59.0273H105.548C105.548 59.0273 105.302 59.0496 105.302 59.745V61.8961H103.368V61.6467H102.634V61.963H102.436V61.6569H102.132V60.2883H101.201C101.201 60.2883 101.189 60.1039 101.095 60.1039H100.921L100.57 55.8828L99.2059 55.8767L98.3098 63.4065H98.1476V63.1024H95.9438V58.2244H93.9387V57.8433H93.6832V57.0506C93.6832 57.0506 93.4379 57.2249 93.3791 57.2249C93.3203 57.2249 93.3203 57.3871 93.3203 57.3871L93.5798 57.2898V58.0501H93.4501V57.7581H93.1703V57.9852H92.8682V57.8007H92.5519V57.973H92.7263V58.2123H91.9457V62.0502C91.9457 62.0502 91.9356 61.886 91.3983 61.7339C90.8631 61.5818 89.452 61.5494 89.452 61.5494H89.1499V61.3H87.4246V61.7461H86.5386V61.8961H86.9704V62.1576H86.644V63.0375C86.644 63.0375 86.1067 63.0274 86.1067 62.7882V59.2017H85.7459V58.2893H85.385V53.2674L80.5252 58.1677V59.8869H80.2556V59.6152H79.8947V58.8651H77.7497V59.6923H77.401V60.1464H77.2834V59.9417H76.3629V57.1823H75.7811C75.7811 57.1823 75.7223 56.8661 75.5013 56.8661C75.2803 56.8661 75.1161 56.8113 75.1161 56.8113V55.3658L74.8647 55.5989V56.1159H74.7086V56.9431H74.1267V57.1823H73.5083V57.5392H72.3547V57.7581H71.0491V58.2569L70.7003 58.117C70.7003 58.117 71.0024 57.4641 70.7003 57.4641H70.3962L70.0941 57.5716H67.2497V58.0399H67.0631V58.1596H66.0494V57.8554H65.8264V58.1271H64.9871V58.4961H64.0443V57.2249H63.9146V56.933H60.841V56.7464H60.5774V55.0312H60.4375V54.4757H60.1253L59.9327 54.2811H59.3305V54.4859H59.3164L58.9717 47.2135H58.4101L65.5831 44.1257C80.2252 44.1359 94.1293 44.5839 107.332 45.2854L114.941 48.5617ZM58.3026 44.1399C60.2915 44.1318 62.2804 44.1257 64.2734 44.1257L58.3026 46.6945V44.1399ZM57.7856 46.6499L52.0278 44.1703C53.9457 44.1582 55.8636 44.148 57.7856 44.1399V46.6499ZM57.7856 47.2135H57.1166L56.7983 54.3237H56.5874V54.5082H56.1353V54.9643H55.963V55.1711C55.963 55.1711 56.0542 55.3495 56.1576 55.4529C56.259 55.5563 55.9954 55.7895 55.9954 55.7895V57.0728H55.8616H55.446H55.2676L50.3024 56.933H48.0155V57.2249H47.8959V58.4961H47.0241V58.1271H46.2496V57.8554H46.0448V58.1596H45.1102V58.0399H44.9379V57.5716H42.3123L42.0326 57.4641H41.7548C41.475 57.4641 41.7548 58.117 41.7548 58.117L41.4304 58.2569V57.7581H40.2261V57.5392H39.1597V57.1823H38.592V56.9431H38.0548V56.1159H37.9088V55.5989L37.6777 55.3658V56.8113C37.6777 56.8113 37.5256 56.8661 37.3249 56.8661C37.1181 56.8661 37.0654 57.1823 37.0654 57.1823H36.5261V59.9417H35.6766V60.1464H35.5691V59.6923H35.2468V58.8651H33.266V59.6152H32.9335V59.8869H32.6861L31.7292 52.7808V51.9333H29.1584V52.7159L28.1994 58.2893H27.869V59.2017H27.5345V62.7882C27.5345 63.0274 27.0398 63.0375 27.0398 63.0375V62.1576H26.7377V61.8961H27.1371V61.7461H26.318V61.3H24.7244V61.5494H24.4467C24.4467 61.5494 23.1451 61.5818 22.6504 61.7339C22.1557 61.886 22.1456 62.0502 22.1456 62.0502V58.2123H21.4258V57.973H21.586V57.8007H21.2961V57.9852H21.0163V57.7581H20.7588V58.0501H20.6372V57.2898L20.8764 57.3871C20.8764 57.3871 20.8764 57.2249 20.8216 57.2249C20.7689 57.2249 20.5419 57.0506 20.5419 57.0506V57.8433H20.3047V58.2244H18.4556V63.1024H16.4221V63.4065H16.2721L15.4449 55.8767H15.3354C15.3354 55.8767 14.9077 52.6389 14.9077 52.3348C14.9077 52.0306 14.6806 52.282 14.6806 52.282L14.3258 55.8442H14.1859L13.8615 60.1039H13.7013C13.6142 60.1039 13.604 60.2883 13.604 60.2883H12.7444V61.6569H12.4646V61.963H12.2821V61.6467H11.605V61.8961H9.81882V59.745C9.81882 59.0496 9.59174 59.0273 9.59174 59.0273H9.29169V58.8327H8.93486V59.0192H8.73212V58.8874H8.58209V57.7906C8.58209 57.6061 8.54965 57.4864 8.37732 57.4418C8.30028 57.4216 8.19485 57.3405 8.09753 57.2553C9.30182 52.9328 10.9015 48.7746 12.864 44.8272C25.3043 44.4927 37.9493 44.2717 50.7403 44.1805L57.7856 47.2135ZM76.1845 5.50126C103.873 5.50126 127.88 21.5118 139.469 44.7542C117.07 42.9032 92.3674 41.3765 65.0986 41.3765C47.9283 41.3765 30.9446 41.6097 14.3217 42.0436C26.3829 20.2751 49.5868 5.50126 76.1845 5.50126ZM108.344 133.951L108.354 133.955C108.354 133.955 108.325 134.062 108.344 133.951ZM102.746 128.635L102.736 129.103C103.835 129.33 109.039 130.508 108.656 132.365C108.433 133.446 108.362 133.829 108.344 133.951L102.665 132.43L102.334 147.76C131.529 137.089 152.371 109.07 152.371 76.1813C152.371 75.0196 152.335 73.866 152.282 72.7165C152.27 72.4549 152.262 72.1954 152.245 71.9359C152.187 70.8776 152.108 69.8254 152.006 68.7792C151.972 68.4264 151.931 68.0737 151.893 67.7229C151.805 66.9444 151.706 66.1699 151.597 65.3975C151.511 64.8095 151.422 64.2216 151.325 63.6377C151.217 62.999 151.106 62.3604 150.982 61.7278C150.879 61.1926 150.776 60.6573 150.66 60.1262C150.49 59.3355 150.309 58.5508 150.117 57.7703C150.115 57.7662 150.115 57.7622 150.115 57.7581C149.298 54.4636 148.255 51.2602 147.023 48.1502C146.662 47.2398 146.283 46.3397 145.889 45.4456C145.867 45.3949 145.847 45.3422 145.823 45.2895C145.82 45.2895 145.818 45.2895 145.816 45.2895C133.964 18.6126 107.259 -0.00320202 76.1845 -0.00320202C46.3246 -0.00320202 20.4952 17.1873 8.0063 42.2057C8.00427 42.2057 8.00224 42.2057 7.99819 42.2057C7.86641 42.4713 7.74476 42.7471 7.61501 43.0167C7.31495 43.6371 7.01489 44.2595 6.73105 44.8901C6.71483 44.9245 6.69659 44.959 6.68037 44.9955C6.68239 44.9955 6.68442 44.9955 6.68442 44.9955C5.06654 48.5982 3.71019 52.3469 2.65998 56.2213C2.63565 55.9375 2.62754 55.682 2.62754 55.682V56.3389C2.53834 56.6734 2.43899 57.0039 2.35384 57.3405C2.10649 58.3116 1.88551 59.2949 1.67465 60.2802C1.60167 60.629 1.52868 60.9797 1.45975 61.3284C1.26106 62.334 1.07656 63.3457 0.916395 64.3655C0.877874 64.6108 0.847466 64.8602 0.810973 65.1075C0.677163 66.03 0.559573 66.9565 0.458201 67.8892C0.431845 68.1385 0.399405 68.3879 0.375076 68.6393C0.267623 69.7301 0.186531 70.8289 0.125709 71.9339C0.111517 72.1873 0.101369 72.4387 0.0892041 72.6921C0.036491 73.8498 0 75.0115 0 76.1813C0 109.078 20.8521 137.103 50.0591 147.766L49.7287 132.43L44.0296 133.957C44.0093 133.835 43.9383 133.452 43.7153 132.371C43.3301 130.5 48.6136 129.32 49.6577 129.105L49.6476 128.635L49.2157 107.351L49.0312 100.02C48.9319 95.3425 59.6772 87.6728 64.314 87.6728H88.0794C92.7161 87.6728 103.461 95.3466 103.362 100.02L103.178 107.351L102.746 128.635Z" fill="#1D1D1B"/>
<path d="M99.8459 127.927L95.0977 141.517V150C96.7034 149.588 98.2827 149.114 99.8459 148.603V127.927Z" fill="#1D1D1B"/>
<path d="M57.2736 141.519L52.5254 127.929V148.605C54.0885 149.116 55.6679 149.59 57.2736 150V141.519Z" fill="#1D1D1B"/>
<path d="M63.6665 89.8667C63.6665 89.8667 60.4145 87.4703 55.9258 95.4766C55.9258 95.4766 58.8919 92.8855 61.4688 92.8693C64.0456 92.8551 65.1566 90.6513 63.6665 89.8667Z" fill="#1D1D1B"/>
<path d="M90.9242 92.8693C93.501 92.8855 96.4672 95.4766 96.4672 95.4766C91.9784 87.4703 88.7264 89.8667 88.7264 89.8667C87.2363 90.6493 88.3473 92.8531 90.9242 92.8693Z" fill="#1D1D1B"/>
<path d="M97.3477 121.558C83.2794 116.933 69.1726 117.195 55.0799 121.566C54.0845 121.872 53.4762 122.859 53.6425 123.885C54.6278 129.949 57.9244 133.704 58.9077 139.768C58.999 140.33 59.2929 140.8 59.7532 141.129C60.2154 141.457 60.7588 141.581 61.3163 141.483C72.751 139.5 79.6422 139.498 91.0769 141.483C91.6344 141.581 92.1778 141.457 92.638 141.129C93.1002 140.8 93.3922 140.328 93.4834 139.768C94.4708 133.698 97.7674 129.939 98.7527 123.867C98.9169 122.853 98.3249 121.878 97.3477 121.558Z" fill="#1D1D1B"/>
<path d="M108.354 133.96L108.344 133.958C108.326 134.069 108.354 133.96 108.354 133.96Z" fill="#1D1D1B"/>
</g>
</g>
<defs>
<clipPath id="clip0_3863_493">
<rect width="574.704" height="150" fill="white"/>
</clipPath>
</defs>
</svg>
