<svg width="555" height="387" viewBox="0 0 555 387" fill="none" xmlns="http://www.w3.org/2000/svg">
<g clip-path="url(#clip0_14_11)">
<rect width="554.667" height="386.667" fill="#FECC00"/>
<path d="M0 80V160L81.0667 159.733L162 159.333L162.4 79.6L162.667 -8.34465e-06H81.3333H0V80Z" fill="#006AA7"/>
<path d="M229.6 79.6L230 159.333L392.4 159.733L554.667 160V80V-8.34465e-06H392H229.333L229.6 79.6Z" fill="#006AA7"/>
<path d="M0 306.667V386.667H81.3333H162.667L162.4 306.933L162 227.333L81.0667 226.933L0 226.667V306.667Z" fill="#006AA7"/>
<path d="M230.267 227.6C229.733 228 229.333 264 229.333 307.6V386.667H392H554.667V306.667V226.667H392.933C303.867 226.667 230.667 227.067 230.267 227.6Z" fill="#006AA7"/>
</g>
<defs>
<clipPath id="clip0_14_11">
<rect width="554.667" height="386.667" fill="white"/>
</clipPath>
</defs>
</svg>
