<?xml version="1.0" encoding="UTF-8"?><svg id="icons" xmlns="http://www.w3.org/2000/svg" viewBox="0 0 128 64"><path d="m88.304,36.355l.823-.266c.711-.23.928-1.13.4-1.659l-.348-.348c-1.432-1.432-3.294-2.214-5.2-2.323.024-.114.058-.224.079-.34.435-2.445-8.916-11.771-8.917-11.771l1.581-.558c.337-.119.585-.409.65-.76l.485-2.602c.108-.579-.306-1.126-.893-1.179l-3.784-.341c-.402-.036-.786.173-.974.53l-.555,1.053-4.509-.205c-.037-.002-.076-.002-.114,0-1.643.103-1.529,2.547.114,2.5l3.693-.168,4.53,11.487c.381.965.41,2.033.083,3.018l-1.273,3.828c-.505,1.519-1.926,2.544-3.527,2.544h-4.444c-2.209,0-4-1.791-4-4v-2.271c0-1.351.683-2.83,1.25-3.827.262-.459.117-1.006-.271-1.291-.564.388-1.244.618-1.979.618h-16c-.544,0-1.054-.136-1.514-.358-4.149,1.466-7.485,4.321-8.227,9.582-.171,1.209.764,2.297,1.985,2.297h1.83c-.511.972-.803,2.076-.803,3.25,0,3.866,3.134,7,7,7s7-3.134,7-7c0-1.174-.292-2.278-.803-3.25h.47c1.105,0,2,.895,2,2s.895,2,2,2h15.971c.664,0,1.312-.157,1.901-.463,1.233-.64,3.463-1.941,5.527-3.896l.034-.011c-.641,1.057-1.017,2.293-1.017,3.62,0,3.866,3.134,7,7,7s7-3.134,7-7c0-2.891-1.753-5.372-4.254-6.44Zm-38.829,6.44c0,2.209-1.791,4-4,4s-4-1.791-4-4c0-1.343.667-2.525,1.683-3.25h4.635c1.015.725,1.683,1.907,1.683,3.25Zm36.083,4c-2.209,0-4-1.791-4-4s1.791-4,4-4,4,1.791,4,4-1.791,4-4,4Zm1.5-4c0,.828-.672,1.5-1.5,1.5s-1.5-.672-1.5-1.5.672-1.5,1.5-1.5,1.5.672,1.5,1.5Zm-43.083,0c0-.828.672-1.5,1.5-1.5s1.5.672,1.5,1.5-.672,1.5-1.5,1.5-1.5-.672-1.5-1.5Zm-.771-18.271v-2c0-1.105.895-2,2-2h16c1.105,0,2,.895,2,2v2c0,1.105-.895,2-2,2h-16c-1.105,0-2-.895-2-2Z"/></svg>