<?xml version="1.0" encoding="UTF-8"?><svg id="icons" xmlns="http://www.w3.org/2000/svg" viewBox="0 0 128 64"><path d="m45.719,36.5c-3.038,0-5.5,2.462-5.5,5.5s2.462,5.5,5.5,5.5,5.5-2.462,5.5-5.5-2.462-5.5-5.5-5.5Zm0,7c-.828,0-1.5-.672-1.5-1.5s.672-1.5,1.5-1.5,1.5.672,1.5,1.5-.672,1.5-1.5,1.5Zm51.151-6.233l-.528-3.563c-.373-2.519-2.295-4.528-4.795-5.011l-11.328-2.192-7.135-7.51c-1.51-1.59-3.607-2.49-5.8-2.49h-16.565c-2.599,0-5.035,1.262-6.534,3.384l-3.966,5.616-6.022,2.125c-1.504.531-2.549,1.905-2.659,3.497l-.451,6.534c-.199,2.89,2.091,5.344,4.988,5.344h2.218c-.044-.328-.075-.66-.075-1,0-4.136,3.364-7.5,7.5-7.5s7.5,3.364,7.5,7.5c0,.34-.031.672-.075,1h21.149c-.044-.328-.075-.66-.075-1,0-4.136,3.364-7.5,7.5-7.5s7.5,3.364,7.5,7.5c0,.34-.031.672-.075,1h2.779c3.053,0,5.393-2.713,4.946-5.733Zm-53.861-10.517l3.626-5.135c.936-1.324,2.463-2.115,4.084-2.115h4.88l.968,7.25h-13.559Zm16.585,0l-.969-7.25h8.659c1.364,0,2.686.567,3.625,1.557l5.409,5.693h-16.725Zm22.125,9.75c-3.038,0-5.5,2.462-5.5,5.5s2.462,5.5,5.5,5.5,5.5-2.462,5.5-5.5-2.462-5.5-5.5-5.5Zm0,7c-.828,0-1.5-.672-1.5-1.5s.672-1.5,1.5-1.5,1.5.672,1.5,1.5-.672,1.5-1.5,1.5Z"/></svg>