<?xml version="1.0" encoding="UTF-8"?><svg id="icons" xmlns="http://www.w3.org/2000/svg" viewBox="0 0 128 64"><path d="m96.193,31.68l-7.992-10.59c-.756-1.002-1.938-1.59-3.193-1.59h-8.008c-1.105,0-2,.895-2,2v17.5h-2v-20.5c0-2.209-1.791-4-4-4h-34c-2.209,0-4,1.791-4,4v22.5c0,2.209,1.791,4,4,4h1.575c-.044-.328-.075-.66-.075-1,0-4.136,3.364-7.5,7.5-7.5,2.779,0,5.204,1.523,6.5,3.774,1.296-2.251,3.721-3.774,6.5-3.774,4.136,0,7.5,3.364,7.5,7.5,0,.34-.031.672-.075,1h14.149c-.044-.328-.075-.66-.075-1,0-4.136,3.364-7.5,7.5-7.5s7.5,3.364,7.5,7.5c0,.34-.031.672-.075,1h1.575c1.105,0,2-.895,2-2v-8.91c0-.87-.283-1.716-.807-2.41Zm-16.193-1.68c-.552,0-1-.448-1-1v-5.5c0-.552.448-1,1-1h5.008c.314,0,.609.147.798.397l5.36,7.103h-11.166Zm-36,8.5c-3.038,0-5.5,2.462-5.5,5.5s2.462,5.5,5.5,5.5,5.5-2.462,5.5-5.5-2.462-5.5-5.5-5.5Zm0,7c-.828,0-1.5-.672-1.5-1.5s.672-1.5,1.5-1.5,1.5.672,1.5,1.5-.672,1.5-1.5,1.5Zm13-7c-3.038,0-5.5,2.462-5.5,5.5s2.462,5.5,5.5,5.5,5.5-2.462,5.5-5.5-2.462-5.5-5.5-5.5Zm0,7c-.828,0-1.5-.672-1.5-1.5s.672-1.5,1.5-1.5,1.5.672,1.5,1.5-.672,1.5-1.5,1.5Zm29-7c-3.038,0-5.5,2.462-5.5,5.5s2.462,5.5,5.5,5.5,5.5-2.462,5.5-5.5-2.462-5.5-5.5-5.5Zm0,7c-.828,0-1.5-.672-1.5-1.5s.672-1.5,1.5-1.5,1.5.672,1.5,1.5-.672,1.5-1.5,1.5Z"/></svg>