<?xml version="1.0" encoding="UTF-8"?><svg id="icons" xmlns="http://www.w3.org/2000/svg" viewBox="0 0 128 64"><path d="m101.673,27.503l-2.498-9.525c-.692-2.638-3.076-4.478-5.804-4.478H31c-2.761,0-5,2.239-5,5v22.5c0,2.761,2.239,5,5,5h3.575c-.044-.328-.075-.66-.075-1,0-4.136,3.364-7.5,7.5-7.5,2.779,0,5.204,1.523,6.5,3.774,1.296-2.251,3.721-3.774,6.5-3.774,4.136,0,7.5,3.364,7.5,7.5,0,.34-.031.672-.075,1h16.149c-.044-.328-.075-.66-.075-1,0-4.136,3.364-7.5,7.5-7.5s7.5,3.364,7.5,7.5c0,.34-.031.672-.075,1h3.575c2.761,0,5-2.239,5-5v-10.96c0-.856-.11-1.709-.327-2.537Zm-71.673-1.503v-8.5h7.95v8.5h-7.95Zm10.45,0v-8.5h7.95v8.5h-7.95Zm10.45,0v-8.5h7.95v8.5h-7.95Zm10.45,0v-8.5h7.95v8.5h-7.95Zm10.45,0v-8.5h7.95v8.5h-7.95Zm26.2,5c0,1.105-.895,2-2,2h-8.028c-.614,0-1.193-.282-1.573-.764l-4.149-5.281v-9.455h11.148c.911,0,1.707.616,1.936,1.497l2.538,9.769c.085.328.128.666.128,1.006v1.228Zm-56,8.5c-3.038,0-5.5,2.462-5.5,5.5s2.462,5.5,5.5,5.5,5.5-2.462,5.5-5.5-2.462-5.5-5.5-5.5Zm0,7c-.828,0-1.5-.672-1.5-1.5s.672-1.5,1.5-1.5,1.5.672,1.5,1.5-.672,1.5-1.5,1.5Zm13-7c-3.038,0-5.5,2.462-5.5,5.5s2.462,5.5,5.5,5.5,5.5-2.462,5.5-5.5-2.462-5.5-5.5-5.5Zm0,7c-.828,0-1.5-.672-1.5-1.5s.672-1.5,1.5-1.5,1.5.672,1.5,1.5-.672,1.5-1.5,1.5Zm31-7c-3.038,0-5.5,2.462-5.5,5.5s2.462,5.5,5.5,5.5,5.5-2.462,5.5-5.5-2.462-5.5-5.5-5.5Zm0,7c-.828,0-1.5-.672-1.5-1.5s.672-1.5,1.5-1.5,1.5.672,1.5,1.5-.672,1.5-1.5,1.5Z"/></svg>